<svg xmlns="http://www.w3.org/2000/svg" version="1.1" xmlns:xlink="http://www.w3.org/1999/xlink" xmlns:svgjs="http://svgjs.com/svgjs" width="1440" height="560" preserveAspectRatio="none" viewBox="0 0 1440 560"><g mask="url(&quot;#SvgjsMask1406&quot;)" fill="none"><rect width="1440" height="560" x="0" y="0" fill="url(#SvgjsLinearGradient1407)"></rect><path d="M 0,14 C 72,42 216,143 360,154 C 504,165 576,77.4 720,69 C 864,60.6 936,107.6 1080,112 C 1224,116.4 1368,95.2 1440,91L1440 560L0 560z" fill="#eb7058"></path><path d="M 0,267 C 57.6,281.2 172.8,338.8 288,338 C 403.2,337.2 460.8,267 576,263 C 691.2,259 748.8,329.4 864,318 C 979.2,306.6 1036.8,208.6 1152,206 C 1267.2,203.4 1382.4,285.2 1440,305L1440 560L0 560z" fill="#184a7e"></path><path d="M 0,508 C 96,496.4 288,445 480,450 C 672,455 768,533.2 960,533 C 1152,532.8 1344,465.8 1440,449L1440 560L0 560z" fill="#2264ab"></path></g><defs><mask id="SvgjsMask1406"><rect width="1440" height="560" fill="#ffffff"></rect></mask><linearGradient x1="50%" y1="100%" x2="50%" y2="0%" gradientUnits="userSpaceOnUse" id="SvgjsLinearGradient1407"><stop stop-color="#0e2a47" offset="0"></stop><stop stop-color="rgba(169, 48, 86, 0.98)" offset="1"></stop></linearGradient></defs></svg>